<svg height="496pt" viewBox="0 0 496 496" width="496pt" xmlns="http://www.w3.org/2000/svg"><path d="m329.199219 295.28125-.078125.71875h-305.121094c-8.800781 0-16-7.199219-16-16v-16c0-8.800781 7.199219-16 16-16h212.71875c1.679688 2 3.519531 3.921875 5.441406 5.839844 22.800782 22.71875 53.121094 37.914062 86.960938 41.441406zm0 0" fill="#ccd1d9"/><path d="m488 152c0 79.527344-64.472656 144-144 144s-144-64.472656-144-144 64.472656-144 144-144 144 64.472656 144 144zm0 0" fill="#ff826e"/><path d="m496 152c0-83.816406-68.183594-152-152-152s-152 68.183594-152 152c0 32.808594 10.550781 63.136719 28.296875 88h-196.296875c-13.230469 0-24 10.769531-24 24v16c0 13.230469 10.769531 24 24 24h3.648438c34.191406 50.246094 52.351562 108.777344 52.351562 169.648438v22.351562h16v-22.351562c0-2.160157-.078125-4.304688-.121094-6.464844l24.121094 24.128906 48-48 48 48 48-48 48 48 24.121094-24.121094c-.042969 2.152344-.121094 4.296875-.121094 6.457032v22.351562h16v-22.351562c0-62.234376 18.863281-122.082032 54.6875-173.265626l9.640625-14.726562c47.414063-25.761719 79.671875-76.007812 79.671875-133.65625zm-152 136c-1.175781 0-2.3125-.144531-3.472656-.175781 10.007812-33.160157-2.976563-75.175781-34.070313-106.28125-2.527343-2.519531-5.152343-4.886719-7.824219-7.175781 8.199219-10.550782 16.925782-20.648438 26.160157-30.269532l109.40625 109.40625c-24.03125 21.382813-55.574219 34.496094-90.199219 34.496094zm17.527344 60.839844c-7.671875 17.921875-13.664063 36.464844-17.894532 55.480468l-20.320312-20.320312 36.6875-36.6875zm-49.527344 23.847656-36.6875-36.6875 32-32h9.375l32 32zm-240-25.375 36.6875 36.6875-20.320312 20.320312c-4.230469-19.015624-10.222657-37.558593-17.894532-55.480468zm11.3125-11.3125 32-32h9.375l32 32-36.6875 36.6875zm64-32h41.375l-20.6875 20.6875zm20.6875 43.3125 36.6875 36.6875-36.6875 36.6875-36.6875-36.6875zm11.3125-11.3125 32-32h9.375l32 32-36.6875 36.6875zm134.160156-203.214844c-9.738281 10.136719-18.945312 20.773438-27.585937 31.902344-24.628907-16.503906-52.949219-23.65625-77.558594-19.175781 1.519531-32.054688 14.136719-61.191407 34.160156-83.703125zm-37.121094 44.734375c-13.839843 19.390625-26.015624 40.097657-36.335937 61.953125-17.976563-21.328125-29.414063-48.25-31.527344-77.730468 20.945313-4.839844 45.886719 1.1875 67.863281 15.777343zm12.726563 9.710938c2.066406 1.800781 4.097656 3.664062 6.058594 5.632812 28.03125 28.03125 39.457031 65.59375 29.085937 93.535157-27.6875-4.0625-52.636718-16.445313-72.292968-34.589844 10.367187-22.863282 22.832031-44.457032 37.148437-64.578125zm-45.765625 116.769531h41.375l-20.6875 20.6875zm20.6875 43.3125 36.6875 36.6875-36.6875 36.6875-36.6875-36.6875zm72.105469-214.519531c9.933593-9.535157 20.375-18.554688 31.308593-26.976563 4.203126 5.785156 8.882813 11.382813 14.136719 16.640625 23.929688 23.925781 54.984375 37.40625 83.296875 37.40625 5.054688 0 10-.480469 14.824219-1.359375-1.527344 32.054688-14.136719 61.183594-34.160156 83.6875zm143.398437 9.464843c-27.214844 6.292969-61.230468-5.699218-86.648437-31.113281-4.6875-4.6875-8.855469-9.664062-12.589844-14.800781 19.832031-14.015625 41.070313-26.214844 63.542969-36.40625 20.3125 22 33.4375 50.648438 35.695312 82.320312zm-115.726562-124.648437c25.542968 3.742187 48.816406 14.503906 67.703125 30.414063-21.03125 9.9375-41 21.570312-59.753907 34.761718-11.855468-22.128906-15.101562-45.929687-7.949218-65.175781zm-16.304688-1.433594c-7.03125 23.289063-2.703125 50.902344 11.28125 76.089844-11.890625 9.09375-23.203125 18.871094-33.96875 29.207031l-70.984375-70.976562c24.03125-21.382813 55.574219-34.496094 90.199219-34.496094 1.175781 0 2.304688.144531 3.472656.175781zm-331.472656 263.824219v-16c0-4.414062 3.59375-8 8-8h209.457031c12.296875 13.0625 26.855469 23.921875 43.070313 32h-252.527344c-4.40625 0-8-3.585938-8-8zm76.6875 24-29.3125 29.304688c-4.941406-10.007813-10.464844-19.785157-16.488281-29.304688zm27.3125 164.6875-25.503906-25.503906c-.632813-6.664063-1.449219-13.296875-2.496094-19.878906l28-27.992188 36.6875 36.6875zm96 0-36.6875-36.6875 36.6875-36.6875 36.6875 36.6875zm96 0-36.6875-36.6875 36.6875-36.6875 28 27.992188c-1.046875 6.582031-1.863281 13.214843-2.496094 19.878906zm56.625-135.382812-29.5625-29.5625c1.65625.058593 3.273438.257812 4.9375.257812 15.9375 0 31.289062-2.488281 45.726562-7.054688-7.855468 11.726563-14.925781 23.855469-21.101562 36.359376zm0 0" fill="#1e1713"/></svg>