<?xml version="1.0"?>
<svg xmlns="http://www.w3.org/2000/svg" xmlns:xlink="http://www.w3.org/1999/xlink" viewBox="0 0 64 64" width="512" height="512"><defs><linearGradient id="linear-gradient" x1="-1" y1="32" x2="60.4" y2="32" gradientUnits="userSpaceOnUse"><stop offset="0" stop-color="#f9a86d"/><stop offset="0.503" stop-color="#f05361"/><stop offset="1" stop-color="#b72563"/></linearGradient><linearGradient id="linear-gradient-2" y1="22.13" x2="60.4" y2="22.13" xlink:href="#linear-gradient"/><linearGradient id="linear-gradient-3" y1="46.214" x2="60.4" y2="46.214" xlink:href="#linear-gradient"/><linearGradient id="linear-gradient-4" y1="55" x2="60.4" y2="55" gradientTransform="translate(28.925 -12.529) rotate(26.565)" xlink:href="#linear-gradient"/></defs><g id="Gradient_outline" data-name="Gradient outline"><path d="M32,2A30,30,0,1,0,62,32,30.034,30.034,0,0,0,32,2ZM60,32a28.066,28.066,0,0,1-.436,4.891,158.178,158.178,0,0,0-21.148-9.318c.076-.413.158-.824.264-1.226,1.906-7.237,8.274-11.411,13.534-13.692A27.9,27.9,0,0,1,60,32ZM28.762,26.833c2.5.629,5,1.367,7.436,2.178-.676,7.587,2.912,16.547,10.675,26.7a27.793,27.793,0,0,1-12.515,4.187C28.841,46.865,27.73,35.816,28.762,26.833Zm.276-2.05a48.481,48.481,0,0,1,8.07-20.308,27.934,27.934,0,0,1,13.561,6.679c-5.517,2.531-11.907,7.026-13.923,14.683-.094.358-.163.724-.236,1.089C33.857,26.055,31.372,25.35,29.038,24.783Zm5.87-20.632A50.6,50.6,0,0,0,27.079,24.33a67.137,67.137,0,0,0-9.506-1.417,21.848,21.848,0,0,0-4.25-11.751A27.881,27.881,0,0,1,32,4,28.222,28.222,0,0,1,34.908,4.151ZM11.867,12.57A19.58,19.58,0,0,1,15.6,22.811a37.454,37.454,0,0,0-10.364.948A28.021,28.021,0,0,1,11.867,12.57ZM4.653,26a33.368,33.368,0,0,1,10.928-1.2c-.359,5.039-3.047,10.773-9.82,16.968A27.927,27.927,0,0,1,4.653,26ZM6.579,43.717c7.707-6.872,10.58-13.289,10.959-18.8a65.658,65.658,0,0,1,9.256,1.449c-1.1,9.168-.032,20.413,5.441,33.63C32.156,60,32.079,60,32,60A28.033,28.033,0,0,1,6.579,43.717ZM48.53,54.582c-7.329-9.554-10.808-17.908-10.371-24.9a162.635,162.635,0,0,1,20.975,9.235A28.081,28.081,0,0,1,48.53,54.582Z" style="fill:url(#linear-gradient)"/><path d="M51.673,16.261l-1.348,1.477C50.372,17.781,55,22.093,55,28h2C57,21.192,51.891,16.459,51.673,16.261Z" style="fill:url(#linear-gradient-2)"/><path d="M54.071,41.628A19.711,19.711,0,0,1,48.4,49.2l1.2,1.6a21.427,21.427,0,0,0,6.329-8.428Z" style="fill:url(#linear-gradient-3)"/><rect x="38.764" y="54" width="4.472" height="2" transform="translate(-20.268 24.142) rotate(-26.565)" style="fill:url(#linear-gradient-4)"/></g></svg>
