<svg height="512pt" viewBox="0 0 512 512" width="512pt" xmlns="http://www.w3.org/2000/svg"><path d="m511.699219 262.898438c-2.699219 102-66.398438 190.300781-155.199219 228.402343l-35.101562-23.101562 3.902343 33.898437c-22.199219 6.300782-45.300781 9.902344-69.300781 9.902344-16.800781 0-33-1.800781-48.898438-4.800781l-19.203124-35.398438-16.199219 25.5c-62.699219-21.898437-115-68.800781-144.398438-127.601562l8.699219-29.097657-21 .898438c-9.601562-26.699219-15-55.5-15-85.5 0-24.601562 3.601562-48.601562 10.199219-71.101562l21.902343-3.597657-9-30.902343c11.097657-24 25.496094-46.898438 43.199219-66.097657l25.5 4.5-3.300781-26.398437c44.699219-38.703125 103.898438-62.402344 167.5-62.402344 22.199219 0 43.800781 3 64.199219 8.402344l.300781 20.097656 33.898438-8.699219c59.402343 24.898438 108.402343 73 134.800781 131.5l-24.300781 15.300781 36.300781 15.597657c4.203125 14.402343 7.203125 29.101562 9 44.101562l-29.398438 33.300781zm0 0" fill="#ff641a"/><path d="m511.699219 262.898438c-2.699219 102-66.398438 190.300781-155.199219 228.402343l-35.101562-23.101562 3.902343 33.898437c-22.199219 6.300782-45.300781 9.902344-69.300781 9.902344v-512c22.199219 0 43.800781 3 64.199219 8.402344l.300781 20.097656 33.898438-8.699219c59.402343 24.898438 108.402343 73 134.800781 131.5l-24.300781 15.300781 36.300781 15.597657c4.203125 14.402343 7.203125 29.101562 9 44.101562l-29.398438 33.300781zm0 0" fill="#f03800"/><path d="m303.699219 331c-1.5 9.902344-2.699219 19.800781-2.699219 30 0 49.800781 21 97 55.5 130.300781-10.199219 4.199219-20.699219 7.800781-31.199219 10.800781-33.902343-37.800781-54.300781-88.300781-54.300781-141.101562 0-10.5.902344-21 2.402344-31.199219-5.703125-.601562-11.703125-.902343-17.402344-1.800781-24.601562-3-48.898438-8.699219-71.699219-16.5-2.101562 16.199219-3.300781 32.699219-3.300781 49.5 0 50.097656 9 100 26.101562 146.199219-12.300781-2.398438-24-5.699219-35.402343-9.898438-13.5-43.199219-20.699219-89.800781-20.699219-136.300781 0-20.699219 1.5-40.800781 4.199219-60.902344-18.300781-8.097656-36.699219-17.699218-53.199219-28.496094-15.898438 39-42 72.597657-74.699219 98.097657-4.800781-9-8.699219-18.601563-12.300781-28.199219 27.597656-23.398438 48.898438-53.699219 61.800781-88.199219-25.203125-19.800781-47.402343-42.601562-66.601562-68.402343 3.601562-12 7.800781-23.398438 12.902343-34.5 17.398438 27 38.398438 51.300781 62.699219 72 2.699219-13.5 4.199219-27.300782 4.199219-41.398438 0-33.898438-8.699219-67.597656-23.699219-96.699219 6.898438-7.800781 14.097657-15 22.199219-21.898437 19.800781 35.398437 31.5 76.597656 31.5 118.597656 0 21.300781-3 41.699219-8.402344 61.199219 15.300782 10.5 32.203125 19.800781 49.003906 27.601562 15-73.5 47.996094-142 95.398438-198.402343 19.199219-23.097657 40.5-44.097657 64.199219-62.996094 11.699219 3.296875 23.398437 6.898437 34.199219 11.398437-38.699219 27.898438-72 62.097657-98.398438 100.800781-33 47.398438-56.101562 103-67.199219 160.898438 21.597657 7.5 44.097657 12.902344 67.199219 16.199219 8.101562.902343 16.199219 1.800781 24.300781 2.402343 14.398438-47.097656 44.398438-88.199218 87-115.800781 36.597657-23.398437 79.300781-34.5 121.898438-33 4.5 10.199219 8.703125 20.398438 12 30.898438-41.398438-4.199219-82.597657 4.800781-117.699219 27.300781-33.898438 21.898438-58.800781 54.300781-71.699219 91.199219 73.199219-2.699219 143.199219-29.699219 198.398438-74.398438 1.199219 9.597657 1.800781 19.5 1.800781 29.699219 0 2.402344-.300781 4.5-.300781 6.898438-59.097657 42.300781-132.097657 67.5-208 68.101562zm0 0" fill="#fde4e4"/><g fill="#fcced3"><path d="m256 120.601562v-49.203124c19.199219-23.097657 40.5-44.097657 64.199219-62.996094 11.699219 3.296875 23.398437 6.898437 34.199219 11.398437-38.699219 27.898438-72 62.097657-98.398438 100.800781zm0 0"/><path d="m303.699219 331c-1.5 9.902344-2.699219 19.800781-2.699219 30 0 49.800781 21 97 55.5 130.300781-10.199219 4.199219-20.699219 7.800781-31.199219 10.800781-33.902343-37.800781-54.300781-88.300781-54.300781-141.101562 0-10.5.902344-21 2.402344-31.199219-5.703125-.601562-11.703125-.902343-17.402344-1.800781v-30.300781c8.101562.902343 16.199219 1.800781 24.300781 2.402343 14.398438-47.097656 44.398438-88.199218 87-115.800781 36.597657-23.398437 79.300781-34.5 121.898438-33 4.5 10.199219 8.703125 20.398438 12 30.898438-41.398438-4.199219-82.597657 4.800781-117.699219 27.300781-33.898438 21.898438-58.800781 54.300781-71.699219 91.199219 73.199219-2.699219 143.199219-29.699219 198.398438-74.398438 1.199219 9.597657 1.800781 19.5 1.800781 29.699219 0 2.402344-.300781 4.5-.300781 6.898438-59.097657 42.300781-132.097657 67.5-208 68.101562zm0 0"/></g></svg>